<svg xmlns:dc="http://purl.org/dc/elements/1.1/" xmlns:cc="http://creativecommons.org/ns#" xmlns:rdf="http://www.w3.org/1999/02/22-rdf-syntax-ns#" xmlns:svg="http://www.w3.org/2000/svg" xmlns="http://www.w3.org/2000/svg" viewBox="0 0 2015.96 546.49335" height="546.49335" width="2015.96" xml:space="preserve" id="svg2" version="1.1" xmlns:xlink="http://www.w3.org/1999/xlink">
 <metadata id="metadata8">
  <rdf:RDF>
   <cc:Work rdf:about="">
    <dc:format>
     image/svg+xml
    </dc:format>
    <dc:type rdf:resource="http://purl.org/dc/dcmitype/StillImage">
    </dc:type>
   </cc:Work>
  </rdf:RDF>
 </metadata>
 <defs id="defs6">
 </defs>
 <g transform="matrix(1.3333333,0,0,-1.3333333,0,546.49333)" id="g10">
  <g transform="scale(0.1)" id="g12">
   <path id="path14" style="fill:#0055ff;fill-opacity:1;fill-rule:nonzero;stroke:none" d="m 2629.56,1763.62 -321.82,-0.66 c -48.11,-0.1 -89.57,-33.99 -99.37,-81.2 l -38.45,-187.9 c -6.9,-33.26 -36.19,-57.03 -70.07,-56.83 -81.45,0.43 -126.42,2.66 -234.05,2.66 -244.02,0 -501.91,162.66 -501.91,443.44 0,260.34 229.65,450.7 501.06,450.7 l 367.29,0.69 c 48.1,0.1 89.57,33.95 99.38,81.16 l 39.12,187.17 c 6.89,33.16 36.07,56.9 69.87,56.82 68.31,-0.18 174.36,-0.65 188.84,-1.85 256.48,0 501.18,-175.39 501.18,-449.7 0,-251.32 -219.11,-444.5 -501.07,-444.5 m 2.55,1172.75 c -22.77,1.13 -124.67,1.7 -197.53,1.97 -48.74,0.19 -90.82,-34.08 -100.64,-81.95 l -38.78,-185.15 c -6.84,-33.27 -36,-57.21 -69.91,-57.36 l -362.96,-1.57 c -403.92,0 -774.61,-302.87 -774.61,-726.9 0,-381.09 317.91,-723.93 774.73,-723.93 23.61,-1.19 156.17,-0.9 244.6,-1.17 48.79,-0.15 90.88,34.23 100.63,82.14 l 38.58,185.94 c 6.81,33.45 36.16,57.5 70.24,57.5 l 315.77,-0.88 c 446.07,0 774.62,342.82 774.62,727.55 0,419.69 -362.86,723.81 -774.74,723.81">
   </path>
   <path id="path16" style="fill:#0055ff;fill-opacity:1;fill-rule:nonzero;stroke:none" d="m 9980.98,1664.85 c -133.39,0 -276.94,105.54 -276.94,337.24 v 10.39 c 0,221.43 146.95,337.3 292.1,337.3 196.26,0 280.66,-173.56 280.66,-334.81 0,-258.45 -157,-350.12 -295.82,-350.12 m 25.32,883.2 c -125.82,0 -240.85,-62.53 -298.91,-123.41 l -23.41,92.2 H 9508.25 V 1076.59 H 9704 v 503.46 l 6.28,2.95 c 58.05,-60.88 169.6,-111.4 280.81,-111.4 263.01,0 506.71,170.84 506.71,545.89 0,342.14 -235.2,530.56 -491.5,530.56">
   </path>
   <path id="path18" style="fill:#0055ff;fill-opacity:1;fill-rule:nonzero;stroke:none" d="m 5291.9,1497.72 h 206.64 V 3022.08 H 5291.9 V 1497.72">
   </path>
   <path id="path20" style="fill:#0055ff;fill-opacity:1;fill-rule:nonzero;stroke:none" d="m 4605.09,1672.27 c -204.5,0 -321.17,159.28 -321.17,337.48 0,204.89 133,342.55 321.17,342.55 95.26,0 160.68,-38.54 223.02,-76.54 l 96.55,175.56 c -67.62,44.29 -187.66,96.73 -306.57,96.73 -321.69,0 -550.15,-226.37 -550.15,-538.3 0,-306.87 233.63,-538.29 550.15,-538.29 134.84,0 231.71,56.67 306.57,99.47 l -96.57,172.58 c -62.14,-37.68 -147.99,-71.24 -223,-71.24">
   </path>
   <path id="path22" style="fill:#0055ff;fill-opacity:1;fill-rule:nonzero;stroke:none" d="m 6669.21,2002.09 c 0,-231.7 -143.54,-337.24 -276.94,-337.24 -138.81,0 -295.82,91.67 -295.82,350.12 0,161.25 84.35,334.82 280.65,334.82 145.17,0 292.11,-115.87 292.11,-337.31 z m 20.06,514.76 -23.42,-92.21 c -58.05,60.89 -173.09,123.41 -298.86,123.41 -256.32,0 -491.57,-201.96 -491.57,-530.56 0,-342.14 235.25,-545.89 491.57,-545.89 125.77,0 240.81,62.54 298.86,123.43 l 23.42,-92.21 H 6865 v 1014.03 h -175.73">
   </path>
   <path id="path24" style="fill:#0055ff;fill-opacity:1;fill-rule:nonzero;stroke:none" d="m 7600.63,1919.4 c 143.23,-37.38 203.22,-65.04 203.22,-138.43 0,-56.25 -50.63,-112.98 -163.72,-112.98 -105.9,0 -191.58,38.16 -270.91,82.59 l -94.87,-172.55 c 73.61,-45.77 230.04,-105.83 365.78,-105.83 227.07,0 361.05,155.33 361.05,308.77 0,266.48 -261.59,309.36 -331.36,331.63 -147.78,38.59 -182.75,68.12 -182.75,130.24 0,62.83 56.41,109.44 160.94,109.44 93.82,0 162.24,-28.76 226.94,-60.89 l 96.54,175.57 c -94.55,41.63 -202.25,81.09 -323.48,81.09 -222.85,0 -358.27,-157.24 -358.27,-305.21 0,-232.71 199.14,-293.04 310.89,-323.44">
   </path>
   <path id="path26" style="fill:#0055ff;fill-opacity:1;fill-rule:nonzero;stroke:none" d="m 8706.09,1919.4 c 143.24,-37.38 203.24,-65.04 203.24,-138.43 0,-56.25 -50.63,-112.98 -163.73,-112.98 -105.89,0 -191.58,38.16 -270.9,82.59 l -94.88,-172.55 c 73.63,-45.77 230.03,-105.83 365.78,-105.83 227.08,0 361.06,155.33 361.06,308.77 0,266.48 -261.59,309.36 -331.37,331.63 -147.77,38.59 -182.75,68.12 -182.75,130.24 0,62.83 56.41,109.44 160.94,109.44 93.82,0 162.24,-28.76 226.95,-60.89 l 96.54,175.57 c -94.55,41.63 -202.26,81.09 -323.49,81.09 -222.85,0 -358.27,-157.24 -358.27,-305.21 0,-232.71 199.15,-293.04 310.88,-323.44">
   </path>
   <path id="path28" style="fill:#0055ff;fill-opacity:1;fill-rule:nonzero;stroke:none" d="m 11630.5,2002.09 c 0,-231.7 -143.6,-337.24 -277,-337.24 -138.8,0 -295.8,91.67 -295.8,350.12 0,161.25 84.4,334.82 280.7,334.82 145.2,0 292.1,-115.87 292.1,-337.31 z m 20,514.76 -23.4,-92.21 c -58,60.89 -173.1,123.41 -298.8,123.41 -256.4,0 -491.6,-201.96 -491.6,-530.56 0,-342.14 235.2,-545.89 491.6,-545.89 125.7,0 240.8,62.54 298.8,123.43 l 23.4,-92.21 h 175.8 v 1014.03 h -175.8">
   </path>
   <path id="path30" style="fill:#0055ff;fill-opacity:1;fill-rule:nonzero;stroke:none" d="m 12561.9,1919.4 c 143.2,-37.38 203.2,-65.04 203.2,-138.43 0,-56.25 -50.6,-112.98 -163.7,-112.98 -105.9,0 -191.6,38.16 -270.9,82.59 l -94.9,-172.55 c 73.6,-45.77 230.1,-105.83 365.8,-105.83 227.1,0 361.1,155.33 361.1,308.77 0,266.48 -261.6,309.36 -331.4,331.63 -147.8,38.59 -182.8,68.12 -182.8,130.24 0,62.83 56.5,109.44 161,109.44 93.8,0 162.2,-28.76 226.9,-60.89 l 96.6,175.57 c -94.6,41.63 -202.3,81.09 -323.5,81.09 -222.9,0 -358.3,-157.24 -358.3,-305.21 0,-232.71 199.2,-293.04 310.9,-323.44">
   </path>
   <path id="path32" style="fill:#0055ff;fill-opacity:1;fill-rule:nonzero;stroke:none" d="m 13667.4,1919.4 c 143.2,-37.38 203.2,-65.04 203.2,-138.43 0,-56.25 -50.6,-112.98 -163.7,-112.98 -105.9,0 -191.6,38.16 -270.9,82.59 l -94.9,-172.55 c 73.6,-45.77 230.1,-105.83 365.8,-105.83 227,0 361,155.33 361,308.77 0,266.48 -261.6,309.36 -331.3,331.63 -147.8,38.59 -182.8,68.12 -182.8,130.24 0,62.83 56.4,109.44 161,109.44 93.8,0 162.2,-28.76 226.9,-60.89 l 96.6,175.57 c -94.6,41.63 -202.3,81.09 -323.5,81.09 -222.9,0 -358.3,-157.24 -358.3,-305.21 0,-232.71 199.1,-293.04 310.9,-323.44">
   </path>
  </g>
 </g>
</svg>