<svg xmlns="http://www.w3.org/2000/svg" viewBox="0 0 1200 630" width="1200" height="630">
  <defs>
    <radialGradient id="bgr" cx="50%" cy="50%" r="70%">
      <stop offset="0%" stop-color="#0d1010"/>
      <stop offset="100%" stop-color="#080808"/>
    </radialGradient>
  </defs>
  <rect width="1200" height="630" fill="url(#bgr)"/>
  <!-- Grid -->
  <line x1="160" y1="480" x2="1040" y2="480" stroke="#1a1a1a" stroke-width="1"/>
  <line x1="160" y1="480" x2="160" y2="120" stroke="#1a1a1a" stroke-width="1"/>
  <g stroke="#1a1a1a" stroke-width="1">
    <line x1="160" y1="390" x2="1040" y2="390"/>
    <line x1="160" y1="300" x2="1040" y2="300"/>
    <line x1="160" y1="210" x2="1040" y2="210"/>
  </g>
  <!-- Wrong metric bars (short, grey) -->
  <rect x="220" y="360" width="80" height="120" fill="#1a1a1a" stroke="#222" stroke-width="1"/>
  <text x="260" y="500" text-anchor="middle" font-family="sans-serif" font-size="10" fill="#333" letter-spacing="1">HOURS</text>
  <text x="260" y="513" text-anchor="middle" font-family="sans-serif" font-size="10" fill="#333" letter-spacing="1">SAVED</text>
  <rect x="340" y="330" width="80" height="150" fill="#1a1a1a" stroke="#222" stroke-width="1"/>
  <text x="380" y="500" text-anchor="middle" font-family="sans-serif" font-size="10" fill="#333" letter-spacing="1">COST</text>
  <text x="380" y="513" text-anchor="middle" font-family="sans-serif" font-size="10" fill="#333" letter-spacing="1">CUT</text>
  <rect x="460" y="380" width="80" height="100" fill="#1a1a1a" stroke="#222" stroke-width="1"/>
  <text x="500" y="500" text-anchor="middle" font-family="sans-serif" font-size="10" fill="#333" letter-spacing="1">TASKS</text>
  <text x="500" y="513" text-anchor="middle" font-family="sans-serif" font-size="10" fill="#333" letter-spacing="1">DONE</text>
  <!-- X marks -->
  <g stroke="#ff4444" stroke-opacity="0.3" stroke-width="1.5">
    <line x1="228" y1="350" x2="292" y2="345"/><line x1="228" y1="345" x2="292" y2="350"/>
    <line x1="348" y1="320" x2="412" y2="315"/><line x1="348" y1="315" x2="412" y2="320"/>
    <line x1="468" y1="370" x2="532" y2="365"/><line x1="468" y1="365" x2="532" y2="370"/>
  </g>
  <!-- Rising curve — right side, glowing -->
  <path d="M 620 460 Q 700 400 760 320 Q 820 240 880 190 Q 940 155 1000 135" fill="none" stroke="#00D4FF" stroke-opacity="0.7" stroke-width="2.5"/>
  <!-- Glow under curve -->
  <path d="M 620 460 Q 700 400 760 320 Q 820 240 880 190 Q 940 155 1000 135 L 1000 480 L 620 480 Z" fill="#00D4FF" fill-opacity="0.04"/>
  <!-- Dots on curve -->
  <circle cx="760" cy="320" r="4" fill="#00D4FF" fill-opacity="0.7"/>
  <circle cx="880" cy="190" r="4" fill="#00D4FF" fill-opacity="0.7"/>
  <circle cx="1000" cy="135" r="5" fill="#00D4FF"/>
  <!-- Label for curve -->
  <text x="880" y="170" font-family="sans-serif" font-size="11" fill="#00D4FF" fill-opacity="0.6" letter-spacing="1">DECISION QUALITY</text>
  <!-- Divider -->
  <line x1="590" y1="130" x2="590" y2="480" stroke="#222" stroke-width="1" stroke-dasharray="4 4"/>
  <text x="590" y="110" text-anchor="middle" font-family="sans-serif" font-size="10" fill="#333" letter-spacing="2">WRONG METRICS · RIGHT METRICS</text>
  <text x="600" y="570" text-anchor="middle" font-family="sans-serif" font-size="12" fill="#00D4FF" fill-opacity="0.2" letter-spacing="5">AI ROI</text>
</svg>
