<svg xmlns="http://www.w3.org/2000/svg" viewBox="0 0 1200 630" width="1200" height="630">
  <defs>
    <radialGradient id="bg-brt" cx="50%" cy="50%" r="65%">
      <stop offset="0%" stop-color="#0e0e18"/>
      <stop offset="100%" stop-color="#080808"/>
    </radialGradient>
    <radialGradient id="glow-brt" cx="50%" cy="50%" r="50%">
      <stop offset="0%" stop-color="#00D4FF" stop-opacity="0.08"/>
      <stop offset="100%" stop-color="#00D4FF" stop-opacity="0"/>
    </radialGradient>
  </defs>
  <rect width="1200" height="630" fill="url(#bg-brt)"/>
  <ellipse cx="600" cy="315" rx="360" ry="250" fill="url(#glow-brt)"/>

  <!-- Board report document -->
  <rect x="430" y="155" width="340" height="320" rx="6" fill="#00D4FF" fill-opacity="0.03" stroke="#00D4FF" stroke-opacity="0.2" stroke-width="1.5"/>

  <!-- Report sections -->
  <!-- Exec Summary -->
  <rect x="445" y="168" width="310" height="38" rx="3" fill="#00D4FF" fill-opacity="0.08" stroke="#00D4FF" stroke-opacity="0.25" stroke-width="1"/>
  <text x="460" y="183" font-family="monospace" font-size="9" fill="#00D4FF" fill-opacity="0.7">EXECUTIVE SUMMARY</text>
  <line x1="460" y1="192" x2="740" y2="192" stroke="#00D4FF" stroke-opacity="0.2" stroke-width="0.8"/>
  <line x1="460" y1="200" x2="720" y2="200" stroke="#00D4FF" stroke-opacity="0.15" stroke-width="0.8"/>

  <!-- Strategic alignment -->
  <text x="460" y="228" font-family="monospace" font-size="8" fill="#00D4FF" fill-opacity="0.45">STRATEGIC ALIGNMENT</text>
  <line x1="460" y1="238" x2="740" y2="238" stroke="#00D4FF" stroke-opacity="0.12" stroke-width="0.8"/>
  <line x1="460" y1="248" x2="700" y2="248" stroke="#00D4FF" stroke-opacity="0.1" stroke-width="0.8"/>

  <!-- Key initiatives with RAG status dots -->
  <text x="460" y="272" font-family="monospace" font-size="8" fill="#00D4FF" fill-opacity="0.45">KEY INITIATIVES</text>
  <circle cx="462" cy="285" r="4" fill="#00D4FF" fill-opacity="0.5"/>
  <line x1="472" y1="285" x2="700" y2="285" stroke="#00D4FF" stroke-opacity="0.15" stroke-width="0.8"/>
  <circle cx="462" cy="297" r="4" fill="#00D4FF" fill-opacity="0.3"/>
  <line x1="472" y1="297" x2="680" y2="297" stroke="#00D4FF" stroke-opacity="0.12" stroke-width="0.8"/>
  <circle cx="462" cy="309" r="4" fill="#00D4FF" fill-opacity="0.15"/>
  <line x1="472" y1="309" x2="720" y2="309" stroke="#00D4FF" stroke-opacity="0.1" stroke-width="0.8"/>

  <!-- Risk section -->
  <text x="460" y="333" font-family="monospace" font-size="8" fill="#00D4FF" fill-opacity="0.45">RISK &amp; SECURITY</text>
  <line x1="460" y1="343" x2="740" y2="343" stroke="#00D4FF" stroke-opacity="0.1" stroke-width="0.8"/>
  <line x1="460" y1="353" x2="690" y2="353" stroke="#00D4FF" stroke-opacity="0.08" stroke-width="0.8"/>

  <!-- Decision required box -->
  <rect x="445" y="365" width="310" height="40" rx="3" fill="#00D4FF" fill-opacity="0.06" stroke="#00D4FF" stroke-opacity="0.3" stroke-width="1"/>
  <text x="460" y="380" font-family="monospace" font-size="9" fill="#00D4FF" fill-opacity="0.6">DECISION REQUIRED</text>
  <text x="460" y="396" font-family="monospace" font-size="8" fill="#00D4FF" fill-opacity="0.3">Approve Q2 security investment</text>

  <!-- Page numbers -->
  <text x="745" y="468" font-family="monospace" font-size="8" fill="#00D4FF" fill-opacity="0.2">p.1 of 6</text>

  <text x="600" y="570" text-anchor="middle" font-family="'Space Grotesk', sans-serif" font-size="12" fill="#00D4FF" fill-opacity="0.25" letter-spacing="5">BOARD REPORT</text>
</svg>
