<svg xmlns="http://www.w3.org/2000/svg" viewBox="0 0 1200 630" width="1200" height="630">
  <defs>
    <linearGradient id="bg" x1="0%" y1="0%" x2="100%" y2="100%">
      <stop offset="0%" style="stop-color:#0a0e18"/>
      <stop offset="100%" style="stop-color:#0d1220"/>
    </linearGradient>
  </defs>

  <!-- Background -->
  <rect width="1200" height="630" fill="url(#bg)"/>

  <!-- Central board table shape -->
  <rect x="280" y="200" width="640" height="280" rx="8" fill="none" stroke="#1a2030" stroke-width="1.5"/>
  <rect x="280" y="200" width="640" height="280" rx="8" fill="#0a0f1a" opacity="0.6"/>

  <!-- Board seats - top row -->
  <rect x="330" y="168" width="64" height="32" rx="4" fill="#0e1828" stroke="#1a2a40" stroke-width="1"/>
  <text x="362" y="188" font-family="monospace" font-size="9" fill="#2a4060" text-anchor="middle">NED</text>
  <rect x="420" y="168" width="64" height="32" rx="4" fill="#0e1828" stroke="#1a2a40" stroke-width="1"/>
  <text x="452" y="188" font-family="monospace" font-size="9" fill="#2a4060" text-anchor="middle">CHAIR</text>
  <rect x="510" y="168" width="64" height="32" rx="4" fill="#0e1828" stroke="#1a2a40" stroke-width="1"/>
  <text x="542" y="188" font-family="monospace" font-size="9" fill="#2a4060" text-anchor="middle">CEO</text>
  <rect x="600" y="168" width="64" height="32" rx="4" fill="#0e1828" stroke="#1a2a40" stroke-width="1"/>
  <text x="632" y="188" font-family="monospace" font-size="9" fill="#2a4060" text-anchor="middle">CFO</text>
  <rect x="690" y="168" width="64" height="32" rx="4" fill="#0e1828" stroke="#00D4FF" stroke-width="1" opacity="0.6"/>
  <text x="722" y="188" font-family="monospace" font-size="9" fill="#00D4FF" text-anchor="middle" opacity="0.8">CTO</text>
  <rect x="780" y="168" width="64" height="32" rx="4" fill="#0e1828" stroke="#1a2a40" stroke-width="1"/>
  <text x="812" y="188" font-family="monospace" font-size="9" fill="#2a4060" text-anchor="middle">NED</text>

  <!-- Three question blocks inside table -->
  <!-- Q1 -->
  <rect x="310" y="228" width="180" height="80" rx="4" fill="#0c1620" stroke="#1a2a40" stroke-width="1"/>
  <text x="325" y="248" font-family="monospace" font-size="10" fill="#00D4FF" opacity="0.7">Q: What is our biggest</text>
  <text x="325" y="263" font-family="monospace" font-size="10" fill="#00D4FF" opacity="0.7">   technology risk?</text>
  <text x="325" y="285" font-family="monospace" font-size="9" fill="#2a4060">→ Reveals awareness</text>
  <text x="325" y="300" font-family="monospace" font-size="9" fill="#2a4060">→ Tests honesty</text>

  <!-- Q2 -->
  <rect x="510" y="228" width="180" height="80" rx="4" fill="#0c1620" stroke="#1a2a40" stroke-width="1"/>
  <text x="525" y="248" font-family="monospace" font-size="10" fill="#00D4FF" opacity="0.7">Q: How does tech roadmap</text>
  <text x="525" y="263" font-family="monospace" font-size="10" fill="#00D4FF" opacity="0.7">   link to 3yr plan?</text>
  <text x="525" y="285" font-family="monospace" font-size="9" fill="#2a4060">→ Tests alignment</text>
  <text x="525" y="300" font-family="monospace" font-size="9" fill="#2a4060">→ Reveals gaps</text>

  <!-- Q3 -->
  <rect x="710" y="228" width="180" height="80" rx="4" fill="#0c1620" stroke="#1a2a40" stroke-width="1"/>
  <text x="725" y="248" font-family="monospace" font-size="10" fill="#00D4FF" opacity="0.7">Q: Legacy dependencies</text>
  <text x="725" y="263" font-family="monospace" font-size="10" fill="#00D4FF" opacity="0.7">   — what fails first?</text>
  <text x="725" y="285" font-family="monospace" font-size="9" fill="#2a4060">→ Maps exposure</text>
  <text x="725" y="300" font-family="monospace" font-size="9" fill="#2a4060">→ Builds resilience view</text>

  <!-- Signal indicators bottom row -->
  <rect x="310" y="336" width="120" height="36" rx="4" fill="#0a1a10" stroke="#1a3020" stroke-width="1"/>
  <text x="370" y="359" font-family="monospace" font-size="10" fill="#2a5030" text-anchor="middle">CLEAR ANSWERS ✓</text>

  <rect x="450" y="336" width="120" height="36" rx="4" fill="#1a0a0a" stroke="#3a1a1a" stroke-width="1"/>
  <text x="510" y="359" font-family="monospace" font-size="10" fill="#5a2020" text-anchor="middle">JARGON DEFLECT ✗</text>

  <rect x="590" y="336" width="120" height="36" rx="4" fill="#1a0a0a" stroke="#3a1a1a" stroke-width="1"/>
  <text x="650" y="359" font-family="monospace" font-size="10" fill="#5a2020" text-anchor="middle">NO RISK SURFACE ✗</text>

  <rect x="730" y="336" width="150" height="36" rx="4" fill="#0a1a10" stroke="#1a3020" stroke-width="1"/>
  <text x="805" y="359" font-family="monospace" font-size="10" fill="#2a5030" text-anchor="middle">TRADE-OFFS NAMED ✓</text>

  <!-- Bottom callout -->
  <rect x="310" y="400" width="580" height="48" rx="4" fill="#0a0f1a" stroke="#1a2030" stroke-width="1"/>
  <text x="600" y="420" font-family="'Space Grotesk', sans-serif" font-size="12" fill="#00D4FF" opacity="0.5" text-anchor="middle" letter-spacing="2">GOVERNANCE PRINCIPLE</text>
  <text x="600" y="440" font-family="'Space Grotesk', sans-serif" font-size="13" fill="#aaa" text-anchor="middle">Technology governance is about leadership quality — not technical depth</text>

  <!-- Title -->
  <text x="600" y="80" font-family="'Space Grotesk', sans-serif" font-size="11" fill="#00D4FF" opacity="0.6" letter-spacing="4" text-anchor="middle">BOARD &amp; ADVISORY</text>
  <text x="600" y="116" font-family="'Space Grotesk', sans-serif" font-size="28" font-weight="700" fill="#fff" opacity="0.9" text-anchor="middle">The NED's Guide to Technology</text>

  <!-- Ambient glow -->
  <ellipse cx="722" cy="184" rx="60" ry="20" fill="#00D4FF" opacity="0.04"/>
</svg>
